<svg xmlns="http://www.w3.org/2000/svg" viewBox="0 0 753.9 213.4" enable-background="new 0 0 753.9 213.4"><g fill="#9C954A"><path d="M167 119.2h14.6l5.6 21.9 5.6-21.9h14.6v36h-9.1v-27.4l-7 27.4h-8.2l-7-27.4v27.4h-9.1v-36zM213 119.2h11.1v36h-11.1v-36zM230.2 119.2h10.4l13.5 19.9v-19.9h10.5v36h-10.5l-13.5-19.8v19.8h-10.5v-36zM269.9 119.2h29.8v7.7h-18.7v5.7h17.3v7.3h-17.3v7.1h19.2v8.1h-30.3v-35.9zM320.9 119.2h14.6l5.6 21.9 5.6-21.9h14.6v36h-9.1v-27.4l-7 27.4h-8.2l-7-27.4v27.4h-9.1v-36zM390.6 149.3h-12.6l-1.8 5.9h-11.4l13.5-36h12.1l13.5 36h-11.6l-1.7-5.9zm-2.3-7.8l-4-12.9-3.9 12.9h7.9zM428.5 140.5l9.7 2.9c-.7 2.7-1.7 5-3.1 6.8-1.4 1.8-3.2 3.2-5.2 4.1s-4.7 1.4-8 1.4c-3.9 0-7.1-.6-9.6-1.7s-4.6-3.1-6.4-6c-1.8-2.9-2.7-6.5-2.7-11 0-6 1.6-10.5 4.7-13.7 3.2-3.2 7.6-4.8 13.4-4.8 4.5 0 8.1.9 10.7 2.7 2.6 1.8 4.5 4.6 5.8 8.4l-9.8 2.2c-.3-1.1-.7-1.9-1.1-2.4-.6-.9-1.4-1.5-2.3-2-.9-.5-1.9-.7-3-.7-2.5 0-4.5 1-5.8 3-1 1.5-1.5 3.9-1.5 7.1 0 4 .6 6.7 1.8 8.2 1.2 1.5 2.9 2.2 5.1 2.2 2.1 0 3.7-.6 4.8-1.8s2-2.6 2.5-4.9zM442.7 119.2h11.1v12.6h12.1v-12.6h11.2v36h-11.2v-14.6h-12.1v14.6h-11.1v-36zM482.9 119.2h11.1v36h-11.1v-36zM501.1 119.2h10.4l13.5 19.9v-19.9h10.5v36h-10.5l-13.5-19.8v19.8h-10.5v-36zM540.9 119.2h29.8v7.7h-18.7v5.7h17.3v7.3h-17.3v7.1h19.2v8.1h-30.3v-35.9zM576.3 155.2v-36h18.5c3.4 0 6.1.3 7.9.9 1.8.6 3.3 1.7 4.4 3.3 1.1 1.6 1.7 3.5 1.7 5.8 0 2-.4 3.7-1.3 5.2-.9 1.4-2 2.6-3.5 3.5-1 .6-2.3 1-3.9 1.4 1.3.4 2.3.9 2.9 1.3.4.3 1 .9 1.8 1.9.8 1 1.3 1.7 1.6 2.2l5.4 10.4h-12.6l-5.9-11c-.8-1.4-1.4-2.3-2-2.8-.8-.6-1.7-.8-2.7-.8h-1v14.6h-11.3zm11.2-21.4h4.7c.5 0 1.5-.2 2.9-.5.7-.1 1.3-.5 1.8-1.1.5-.6.7-1.3.7-2.1 0-1.2-.4-2.1-1.1-2.7s-2.1-.9-4.1-.9h-4.9v7.3zM609.5 119.2h12.3l7.2 12.1 7.3-12.1h12.3l-14 20.9v15.1h-11.1v-15.1l-14-20.9zM687.9 140.5l9.7 2.9c-.7 2.7-1.7 5-3.1 6.8-1.4 1.8-3.2 3.2-5.2 4.1s-4.7 1.4-8 1.4c-3.9 0-7.1-.6-9.6-1.7s-4.6-3.1-6.4-6c-1.8-2.9-2.7-6.5-2.7-11 0-6 1.6-10.5 4.7-13.7 3.2-3.2 7.6-4.8 13.4-4.8 4.5 0 8.1.9 10.7 2.7 2.6 1.8 4.5 4.6 5.8 8.4l-9.8 2.2c-.3-1.1-.7-1.9-1.1-2.4-.6-.9-1.4-1.5-2.3-2-.9-.5-1.9-.7-3-.7-2.5 0-4.5 1-5.8 3-1 1.5-1.5 3.9-1.5 7.1 0 4 .6 6.7 1.8 8.2 1.2 1.5 2.9 2.2 5.1 2.2 2.1 0 3.7-.6 4.8-1.8s2-2.6 2.5-4.9zM701.6 137.3c0-5.9 1.6-10.4 4.9-13.7s7.8-4.9 13.7-4.9c6 0 10.6 1.6 13.8 4.8 3.2 3.2 4.9 7.7 4.9 13.5 0 4.2-.7 7.7-2.1 10.3-1.4 2.7-3.5 4.8-6.1 6.3-2.7 1.5-6 2.2-10 2.2-4.1 0-7.4-.6-10.1-1.9-2.7-1.3-4.8-3.3-6.5-6.1s-2.5-6.3-2.5-10.5zm11.2 0c0 3.6.7 6.2 2 7.8s3.2 2.4 5.5 2.4c2.4 0 4.2-.8 5.5-2.3 1.3-1.6 2-4.3 2-8.4 0-3.4-.7-5.9-2-7.4-1.4-1.6-3.2-2.3-5.6-2.3-2.2 0-4 .8-5.4 2.4-1.4 1.5-2 4.1-2 7.8zM742.3 145.2h10.7v10h-10.7v-10z"/></g><g fill="#117156"><path d="M213.4 86.3l18.2 5.5c-1.2 5.1-3.1 9.4-5.8 12.8-2.6 3.4-5.9 6-9.8 7.7-3.9 1.7-8.8 2.6-14.9 2.6-7.3 0-13.2-1.1-17.9-3.2-4.6-2.1-8.6-5.8-12-11.2s-5-12.2-5-20.5c0-11.1 3-19.6 8.9-25.6s14.3-8.9 25.1-8.9c8.5 0 15.1 1.7 19.9 5.1 4.8 3.4 8.4 8.7 10.8 15.7l-18.3 4.1c-.6-2-1.3-3.5-2-4.5-1.2-1.6-2.6-2.8-4.3-3.7-1.7-.9-3.6-1.3-5.6-1.3-4.7 0-8.3 1.9-10.8 5.7-1.9 2.8-2.8 7.2-2.8 13.2 0 7.4 1.1 12.5 3.4 15.3 2.3 2.8 5.4 4.1 9.5 4.1 4 0 7-1.1 9-3.3 2.1-2.2 3.5-5.4 4.4-9.6zM240.6 46.6h20.8v67.1h-20.8v-67.1zM270.8 46.6h19.4l25.3 37.1v-37.1h19.5v67.1h-19.5l-25.1-36.8v36.8h-19.5v-67.1zM389.7 86.3l18.2 5.5c-1.2 5.1-3.1 9.4-5.8 12.8-2.6 3.4-5.9 6-9.8 7.7-3.9 1.7-8.8 2.6-14.9 2.6-7.3 0-13.2-1.1-17.9-3.2-4.6-2.1-8.6-5.8-12-11.2s-5-12.2-5-20.5c0-11.1 3-19.6 8.9-25.6s14.3-8.9 25.1-8.9c8.5 0 15.1 1.7 19.9 5.1 4.8 3.4 8.4 8.7 10.8 15.7l-18.3 4.1c-.6-2-1.3-3.5-2-4.5-1.2-1.6-2.6-2.8-4.3-3.7-1.7-.9-3.6-1.3-5.6-1.3-4.7 0-8.3 1.9-10.8 5.7-1.9 2.8-2.8 7.2-2.8 13.2 0 7.4 1.1 12.5 3.4 15.3 2.3 2.8 5.4 4.1 9.5 4.1 4 0 7-1.1 9-3.3 2-2.2 3.4-5.4 4.4-9.6zM416.9 46.6h20.8v67.1h-20.8v-67.1zM447 46.6h19.4l25.3 37.1v-37.1h19.5v67.1h-19.5l-25.1-36.8v36.8h-19.6v-67.1zM519.5 46.6h19.4l25.3 37.1v-37.1h19.5v67.1h-19.5l-25.2-36.8v36.8h-19.5v-67.1zM639.6 102.6h-23.5l-3.3 11.1h-21.2l25.2-67.1h22.6l25.2 67.1h-21.6l-3.4-11.1zm-4.3-14.5l-7.4-24.1-7.3 24.1h14.7zM660.1 46.6h63v16.6h-21.1v50.5h-20.7v-50.5h-21.1v-16.6zM731.4 46.6h20.8v67.1h-20.8v-67.1z"/></g><polygon fill="#fff" stroke="#9C954A" stroke-width="3" stroke-miterlimit="10" points="80.6,2.5 158.8,106.4 80.1,210.9 1.9,105.8"/><path fill="#9C954A" d="M80.4 210.9l79.7-104.2-79.1-103.6"/><path fill="#809569" d="M114.2 178.3c3.4 0 6.1 2.7 6.1 6.1 0 3.4-2.7 6.1-6.1 6.1s-6.1-2.7-6.1-6.1c0-3.4 2.8-6.1 6.1-6.1zm0 11c2.6 0 4.6-2.1 4.6-4.8 0-2.8-2.1-4.8-4.6-4.8s-4.6 2.1-4.6 4.8c0 2.7 2.1 4.8 4.6 4.8zm-2.9-8.3h3.5c1.1 0 2 .5 2 1.7 0 .7-.5 1.5-1.4 1.7l.9 1.5c.3.5.7 1.2 1.1 1.3v.2h-1.6c-.2 0-.4-.3-.6-.6l-1.2-2.2h-.4v2c0 .4.2.5.7.5v.3h-3.1v-.3c.6 0 .8-.1.8-.5v-4.9c0-.4-.3-.5-.8-.5v-.2zm2.4 3.3h.5c.7 0 .9-.8.9-1.5 0-1-.3-1.3-.8-1.3h-.5v2.8z"/><path fill="#117156" d="M114.6 127.5c-5.4 9.1-12.8 15.6-26.3 14.8-16.6-.9-25.4-17-23.8-36.8 1.5-19.7 12.5-34.5 28.5-33.6 11.7.7 17.8 6.5 21.6 12.9v-37.6c-5.6-2.5-12.2-4-19.7-4.4-29.2-1.7-57.2 23.2-60.3 61.1-3.1 37.8 20.8 65.9 51.4 67.6 10.9.6 20.3-1.1 28.5-5.4v-38.6z"/><g fill="#117156"><path d="M172.1 188.4v-18.8h-5.5v-3.8h14.7v3.8h-5.5v18.8h-3.7zM200.2 188.4v-22.6h3.7v8.9h7.4v-8.9h3.7v22.6h-3.7v-9.9h-7.4v9.9h-3.7zM235.3 188.4v-22.6h13.8v3.8h-10v5h9.3v3.8h-9.4v6.1h10.4v3.8h-14.1zM291.7 181.1l3.7-.4c.4 2.9 1.8 4.3 4 4.3 1.1 0 2-.3 2.7-.9.6-.6 1-1.3 1-2.2 0-.5-.1-1-.3-1.3-.2-.4-.6-.7-1-.9-.5-.2-1.6-.6-3.4-1.2-1.6-.5-2.8-1-3.5-1.6-.7-.6-1.3-1.3-1.8-2.2s-.7-1.9-.7-3c0-1.2.3-2.3.8-3.3s1.3-1.7 2.3-2.2c1-.5 2.2-.8 3.7-.8 2.2 0 3.9.6 5.1 1.8 1.2 1.2 1.9 2.9 1.9 5.1l-3.7.2c-.2-1.2-.5-2.1-1.1-2.5s-1.3-.7-2.3-.7c-1 0-1.8.2-2.3.6-.5.4-.8.9-.8 1.6 0 .6.2 1.1.7 1.6.5.4 1.6.9 3.4 1.4 1.9.5 3.2 1.1 4.1 1.7s1.5 1.4 1.9 2.3c.4 1 .7 2.1.7 3.5 0 2-.6 3.6-1.8 4.9-1.2 1.3-3.1 2-5.7 2-4.6-.1-7.1-2.6-7.6-7.8zM330.5 188.4v-18.8h-5.5v-3.8h14.7v3.8h-5.5v18.8h-3.7zM358.6 188.4v-22.6h7.9c2 0 3.5.2 4.3.6.9.4 1.6 1.1 2.1 2.1.6 1 .8 2.2.8 3.6 0 1.8-.4 3.2-1.3 4.3-.8 1.1-2.1 1.8-3.6 2 .8.6 1.5 1.2 2 1.9s1.2 1.9 2.1 3.7l2.3 4.4h-4.5l-2.7-4.9c-1-1.8-1.6-2.9-2-3.3s-.7-.8-1.1-.9-1-.3-1.9-.3h-.8v9.4h-3.6zm3.7-13h2.8c1.7 0 2.8-.1 3.2-.2s.8-.4 1.1-.9.4-1.1.4-1.8-.1-1.3-.4-1.7-.7-.7-1.2-.9c-.3-.1-1.4-.2-3-.2h-2.9v5.7zM392.9 177.3c0-2.7.4-4.9 1.2-6.7.8-1.7 1.8-3 3.1-3.9 1.3-.9 2.8-1.3 4.7-1.3 2.7 0 4.8 1 6.5 3s2.5 4.9 2.5 8.7c0 3.8-.9 6.7-2.7 8.9-1.6 1.9-3.7 2.8-6.3 2.8-2.7 0-4.8-.9-6.4-2.8-1.7-2.1-2.6-5-2.6-8.7zm3.9-.2c0 2.6.5 4.6 1.5 5.9s2.2 2 3.7 2 2.7-.6 3.7-1.9c1-1.3 1.5-3.3 1.5-5.9 0-2.6-.5-4.6-1.4-5.8-.9-1.3-2.2-1.9-3.7-1.9s-2.8.6-3.7 1.9c-1.1 1.1-1.6 3.1-1.6 5.7zM430.3 188.4v-22.6h3.6l7.6 15.1v-15.1h3.5v22.6h-3.8l-7.5-14.7v14.7h-3.4zM474 180.2v-3.8h8.1v9c-.8 1-2 1.8-3.5 2.5s-3 1-4.5 1c-1.8 0-3.4-.5-4.8-1.3-1.4-.9-2.5-2.2-3.3-4-.8-1.8-1.2-3.9-1.2-6.3 0-2.5.4-4.6 1.2-6.4.8-1.8 1.9-3.1 3.2-4 1.3-.9 2.9-1.3 4.7-1.3 2.2 0 4 .6 5.3 1.7 1.3 1.1 2.2 2.8 2.6 5l-3.7.8c-.3-1.2-.8-2.1-1.5-2.7s-1.6-.9-2.7-.9c-1.6 0-2.9.6-3.9 1.9-1 1.2-1.5 3.1-1.5 5.7 0 2.7.5 4.8 1.6 6.2.9 1.2 2.2 1.8 3.7 1.8.7 0 1.5-.2 2.3-.5.8-.3 1.5-.8 2.1-1.4v-2.9h-4.2zM502 188.4v-22.6h13.8v3.8h-10v5h9.3v3.8h-9.3v6.1h10.4v3.8h-14.2zM534.7 181.1l3.7-.4c.4 2.9 1.8 4.3 4 4.3 1.1 0 2-.3 2.7-.9.6-.6 1-1.3 1-2.2 0-.5-.1-1-.3-1.3-.2-.4-.6-.7-1-.9s-1.6-.6-3.4-1.2c-1.6-.5-2.8-1-3.5-1.6-.7-.6-1.3-1.3-1.8-2.2-.4-.9-.7-1.9-.7-3 0-1.2.3-2.3.8-3.3s1.3-1.7 2.3-2.2c1-.5 2.2-.8 3.7-.8 2.2 0 3.9.6 5.1 1.8 1.2 1.2 1.9 2.9 1.9 5.1l-3.7.2c-.2-1.2-.5-2.1-1.1-2.5s-1.3-.7-2.3-.7-1.8.2-2.3.6c-.5.4-.8.9-.8 1.6 0 .6.2 1.1.7 1.6.5.4 1.6.9 3.4 1.4 1.9.5 3.2 1.1 4.1 1.7.8.6 1.5 1.4 1.9 2.3.4 1 .7 2.1.7 3.5 0 2-.6 3.6-1.8 4.9-1.2 1.3-3.1 2-5.7 2-4.5-.1-7.1-2.6-7.6-7.8zM573.6 188.4v-18.8h-5.6v-3.8h14.7v3.8h-5.5v18.8h-3.6zM625.4 188.4v-22.4h3.7v18.6h9.3v3.8h-13zM657.4 188.4v-22.6h3.7v22.6h-3.7zM681.2 188.4v-22.6h3.6l7.6 15.1v-15.1h3.5v22.6h-3.8l-7.5-14.7v14.7h-3.4zM716.3 188.4v-22.6h3.7v10.1l7.6-10.1h5l-7 8.8 7.4 13.8h-4.8l-5.1-10.6-3 3.8v6.8h-3.8zM734.9 188.4v-4.3h3.5v4.3h-3.5zM738.4 166.3h5.8v1.3h-.3c-.1-.5-.4-.9-1-.9h-.7v5.2c0 .4.2.5.8.5v.3h-3.5v-.3c.5 0 .8-.2.8-.5v-5.2h-.7c-.5 0-.9.4-1 .9h-.3v-1.3zm8.2 2v3.3c0 .5 0 .8.8.8v.3h-2.2v-.3c.8 0 .8-.3.8-.8v-4.1c0-.3-.7-.8-1.2-.8v-.3h2.5l2 4.2 2.2-4.2h2.2v.3c-.5 0-.8.1-.8.5v4.8c0 .4.3.5.8.5v.3h-3.5v-.3c.5 0 .8-.1.8-.5v-3.6l-2.3 4.4h-.3l-1.8-4.5z"/></g></svg>