<?xml version="1.0" encoding="utf-8"?>
<!-- Generator: Adobe Illustrator 18.1.0, SVG Export Plug-In . SVG Version: 6.00 Build 0)  -->
<svg version="1.1" id="Layer_5" xmlns="http://www.w3.org/2000/svg" xmlns:xlink="http://www.w3.org/1999/xlink" x="0px" y="0px"
	 viewBox="0 0 753.9 213.4" enable-background="new 0 0 753.9 213.4" xml:space="preserve">
<g>
	<path fill="#9C954A" d="M167,119.2h14.6l5.6,21.9l5.6-21.9h14.6v36h-9.1v-27.4l-7,27.4h-8.2l-7-27.4v27.4H167V119.2z"/>
	<path fill="#9C954A" d="M213,119.2h11.1v36H213V119.2z"/>
	<path fill="#9C954A" d="M230.2,119.2h10.4l13.5,19.9v-19.9h10.5v36h-10.5l-13.5-19.8v19.8h-10.5V119.2z"/>
	<path fill="#9C954A" d="M269.9,119.2h29.8v7.7h-18.7v5.7h17.3v7.3h-17.3v7.1h19.2v8.1h-30.3V119.2z"/>
	<path fill="#9C954A" d="M320.9,119.2h14.6l5.6,21.9l5.6-21.9h14.6v36h-9.1v-27.4l-7,27.4H337l-7-27.4v27.4h-9.1V119.2z"/>
	<path fill="#9C954A" d="M390.6,149.3h-12.6l-1.8,5.9h-11.4l13.5-36h12.1l13.5,36h-11.6L390.6,149.3z M388.3,141.5l-4-12.9
		l-3.9,12.9H388.3z"/>
	<path fill="#9C954A" d="M428.5,140.5l9.7,2.9c-0.7,2.7-1.7,5-3.1,6.8c-1.4,1.8-3.2,3.2-5.2,4.1s-4.7,1.4-8,1.4
		c-3.9,0-7.1-0.6-9.6-1.7c-2.5-1.1-4.6-3.1-6.4-6c-1.8-2.9-2.7-6.5-2.7-11c0-6,1.6-10.5,4.7-13.7c3.2-3.2,7.6-4.8,13.4-4.8
		c4.5,0,8.1,0.9,10.7,2.7c2.6,1.8,4.5,4.6,5.8,8.4l-9.8,2.2c-0.3-1.1-0.7-1.9-1.1-2.4c-0.6-0.9-1.4-1.5-2.3-2
		c-0.9-0.5-1.9-0.7-3-0.7c-2.5,0-4.5,1-5.8,3c-1,1.5-1.5,3.9-1.5,7.1c0,4,0.6,6.7,1.8,8.2c1.2,1.5,2.9,2.2,5.1,2.2
		c2.1,0,3.7-0.6,4.8-1.8S428,142.8,428.5,140.5z"/>
	<path fill="#9C954A" d="M442.7,119.2h11.1v12.6h12.1v-12.6h11.2v36h-11.2v-14.6h-12.1v14.6h-11.1V119.2z"/>
	<path fill="#9C954A" d="M482.9,119.2h11.1v36h-11.1V119.2z"/>
	<path fill="#9C954A" d="M501.1,119.2h10.4l13.5,19.9v-19.9h10.5v36H525l-13.5-19.8v19.8h-10.5V119.2z"/>
	<path fill="#9C954A" d="M540.9,119.2h29.8v7.7H552v5.7h17.3v7.3H552v7.1h19.2v8.1h-30.3V119.2z"/>
	<path fill="#9C954A" d="M576.3,155.2v-36h18.5c3.4,0,6.1,0.3,7.9,0.9c1.8,0.6,3.3,1.7,4.4,3.3c1.1,1.6,1.7,3.5,1.7,5.8
		c0,2-0.4,3.7-1.3,5.2c-0.9,1.4-2,2.6-3.5,3.5c-1,0.6-2.3,1-3.9,1.4c1.3,0.4,2.3,0.9,2.9,1.3c0.4,0.3,1,0.9,1.8,1.9
		c0.8,1,1.3,1.7,1.6,2.2l5.4,10.4h-12.6l-5.9-11c-0.8-1.4-1.4-2.3-2-2.8c-0.8-0.6-1.7-0.8-2.7-0.8h-1v14.6H576.3z M587.5,133.8h4.7
		c0.5,0,1.5-0.2,2.9-0.5c0.7-0.1,1.3-0.5,1.8-1.1c0.5-0.6,0.7-1.3,0.7-2.1c0-1.2-0.4-2.1-1.1-2.7s-2.1-0.9-4.1-0.9h-4.9V133.8z"/>
	<path fill="#9C954A" d="M609.5,119.2h12.3l7.2,12.1l7.3-12.1h12.3l-14,20.9v15.1h-11.1v-15.1L609.5,119.2z"/>
	<path fill="#9C954A" d="M687.9,140.5l9.7,2.9c-0.7,2.7-1.7,5-3.1,6.8c-1.4,1.8-3.2,3.2-5.2,4.1s-4.7,1.4-8,1.4
		c-3.9,0-7.1-0.6-9.6-1.7c-2.5-1.1-4.6-3.1-6.4-6c-1.8-2.9-2.7-6.5-2.7-11c0-6,1.6-10.5,4.7-13.7c3.2-3.2,7.6-4.8,13.4-4.8
		c4.5,0,8.1,0.9,10.7,2.7c2.6,1.8,4.5,4.6,5.8,8.4l-9.8,2.2c-0.3-1.1-0.7-1.9-1.1-2.4c-0.6-0.9-1.4-1.5-2.3-2
		c-0.9-0.5-1.9-0.7-3-0.7c-2.5,0-4.5,1-5.8,3c-1,1.5-1.5,3.9-1.5,7.1c0,4,0.6,6.7,1.8,8.2c1.2,1.5,2.9,2.2,5.1,2.2
		c2.1,0,3.7-0.6,4.8-1.8S687.4,142.8,687.9,140.5z"/>
	<path fill="#9C954A" d="M701.6,137.3c0-5.9,1.6-10.4,4.9-13.7s7.8-4.9,13.7-4.9c6,0,10.6,1.6,13.8,4.8c3.2,3.2,4.9,7.7,4.9,13.5
		c0,4.2-0.7,7.7-2.1,10.3c-1.4,2.7-3.5,4.8-6.1,6.3c-2.7,1.5-6,2.2-10,2.2c-4.1,0-7.4-0.6-10.1-1.9c-2.7-1.3-4.8-3.3-6.5-6.1
		S701.6,141.5,701.6,137.3z M712.8,137.3c0,3.6,0.7,6.2,2,7.8s3.2,2.4,5.5,2.4c2.4,0,4.2-0.8,5.5-2.3c1.3-1.6,2-4.3,2-8.4
		c0-3.4-0.7-5.9-2-7.4c-1.4-1.6-3.2-2.3-5.6-2.3c-2.2,0-4,0.8-5.4,2.4C713.4,131,712.8,133.6,712.8,137.3z"/>
	<path fill="#9C954A" d="M742.3,145.2h10.7v10h-10.7V145.2z"/>
</g>
<g>
	<path fill="#117156" d="M213.4,86.3l18.2,5.5c-1.2,5.1-3.1,9.4-5.8,12.8c-2.6,3.4-5.9,6-9.8,7.7c-3.9,1.7-8.8,2.6-14.9,2.6
		c-7.3,0-13.2-1.1-17.9-3.2c-4.6-2.1-8.6-5.8-12-11.2s-5-12.2-5-20.5c0-11.1,3-19.6,8.9-25.6s14.3-8.9,25.1-8.9
		c8.5,0,15.1,1.7,19.9,5.1c4.8,3.4,8.4,8.7,10.8,15.7l-18.3,4.1c-0.6-2-1.3-3.5-2-4.5c-1.2-1.6-2.6-2.8-4.3-3.7
		c-1.7-0.9-3.6-1.3-5.6-1.3c-4.7,0-8.3,1.9-10.8,5.7c-1.9,2.8-2.8,7.2-2.8,13.2c0,7.4,1.1,12.5,3.4,15.3c2.3,2.8,5.4,4.1,9.5,4.1
		c4,0,7-1.1,9-3.3C211.1,93.7,212.5,90.5,213.4,86.3z"/>
	<path fill="#117156" d="M240.6,46.6h20.8v67.1h-20.8V46.6z"/>
	<path fill="#117156" d="M270.8,46.6h19.4l25.3,37.1V46.6H335v67.1h-19.5l-25.1-36.8v36.8h-19.5V46.6z"/>
	<path fill="#117156" d="M389.7,86.3l18.2,5.5c-1.2,5.1-3.1,9.4-5.8,12.8c-2.6,3.4-5.9,6-9.8,7.7c-3.9,1.7-8.8,2.6-14.9,2.6
		c-7.3,0-13.2-1.1-17.9-3.2c-4.6-2.1-8.6-5.8-12-11.2s-5-12.2-5-20.5c0-11.1,3-19.6,8.9-25.6s14.3-8.9,25.1-8.9
		c8.5,0,15.1,1.7,19.9,5.1c4.8,3.4,8.4,8.7,10.8,15.7l-18.3,4.1c-0.6-2-1.3-3.5-2-4.5c-1.2-1.6-2.6-2.8-4.3-3.7
		c-1.7-0.9-3.6-1.3-5.6-1.3c-4.7,0-8.3,1.9-10.8,5.7c-1.9,2.8-2.8,7.2-2.8,13.2c0,7.4,1.1,12.5,3.4,15.3c2.3,2.8,5.4,4.1,9.5,4.1
		c4,0,7-1.1,9-3.3C387.3,93.7,388.7,90.5,389.7,86.3z"/>
	<path fill="#117156" d="M416.9,46.6h20.8v67.1h-20.8V46.6z"/>
	<path fill="#117156" d="M447,46.6h19.4l25.3,37.1V46.6h19.5v67.1h-19.5l-25.1-36.8v36.8H447V46.6z"/>
	<path fill="#117156" d="M519.5,46.6h19.4l25.3,37.1V46.6h19.5v67.1h-19.5L539,76.9v36.8h-19.5V46.6z"/>
	<path fill="#117156" d="M639.6,102.6h-23.5l-3.3,11.1h-21.2l25.2-67.1h22.6l25.2,67.1H643L639.6,102.6z M635.3,88.1L627.9,64
		l-7.3,24.1H635.3z"/>
	<path fill="#117156" d="M660.1,46.6h63v16.6H702v50.5h-20.7V63.2h-21.1V46.6z"/>
	<path fill="#117156" d="M731.4,46.6h20.8v67.1h-20.8V46.6z"/>
</g>
<g>
	<g>
		<polygon fill="#FFFFFF" stroke="#9C954A" stroke-width="3" stroke-miterlimit="10" points="80.6,2.5 158.8,106.4 80.1,210.9
			1.9,105.8 		"/>
		<g>
			<path fill="#9C954A" d="M80.4,210.9l79.7-104.2L81,3.1"/>
			<g>
				<path fill="#809569" d="M114.2,178.3c3.4,0,6.1,2.7,6.1,6.1c0,3.4-2.7,6.1-6.1,6.1s-6.1-2.7-6.1-6.1
					C108.1,181,110.9,178.3,114.2,178.3z M114.2,189.3c2.6,0,4.6-2.1,4.6-4.8c0-2.8-2.1-4.8-4.6-4.8s-4.6,2.1-4.6,4.8
					C109.6,187.2,111.7,189.3,114.2,189.3z M111.3,181h3.5c1.1,0,2,0.5,2,1.7c0,0.7-0.5,1.5-1.4,1.7l0.9,1.5
					c0.3,0.5,0.7,1.2,1.1,1.3v0.2h-1.6c-0.2,0-0.4-0.3-0.6-0.6l-1.2-2.2h-0.4v2c0,0.4,0.2,0.5,0.7,0.5v0.3h-3.1v-0.3
					c0.6,0,0.8-0.1,0.8-0.5v-4.9c0-0.4-0.3-0.5-0.8-0.5V181z M113.7,184.3h0.5c0.7,0,0.9-0.8,0.9-1.5c0-1-0.3-1.3-0.8-1.3h-0.5
					V184.3z"/>
			</g>
		</g>
	</g>
	<g>
		<path fill="#117156" d="M114.6,127.5c-5.4,9.1-12.8,15.6-26.3,14.8c-16.6-0.9-25.4-17-23.8-36.8C66,85.8,77,71,93,71.9
			c11.7,0.7,17.8,6.5,21.6,12.9V47.2c-5.6-2.5-12.2-4-19.7-4.4C65.7,41.1,37.7,66,34.6,103.9c-3.1,37.8,20.8,65.9,51.4,67.6
			c10.9,0.6,20.3-1.1,28.5-5.4V127.5z"/>
	</g>
</g>
<g>
	<path fill="#117156" d="M172.1,188.4v-18.8h-5.5v-3.8h14.7v3.8h-5.5v18.8H172.1z"/>
	<path fill="#117156" d="M200.2,188.4v-22.6h3.7v8.9h7.4v-8.9h3.7v22.6h-3.7v-9.9h-7.4v9.9H200.2z"/>
	<path fill="#117156" d="M235.3,188.4v-22.6h13.8v3.8h-10v5h9.3v3.8H239v6.1h10.4v3.8H235.3z"/>
	<path fill="#117156" d="M291.7,181.1l3.7-0.4c0.4,2.9,1.8,4.3,4,4.3c1.1,0,2-0.3,2.7-0.9c0.6-0.6,1-1.3,1-2.2c0-0.5-0.1-1-0.3-1.3
		c-0.2-0.4-0.6-0.7-1-0.9c-0.5-0.2-1.6-0.6-3.4-1.2c-1.6-0.5-2.8-1-3.5-1.6c-0.7-0.6-1.3-1.3-1.8-2.2s-0.7-1.9-0.7-3
		c0-1.2,0.3-2.3,0.8-3.3s1.3-1.7,2.3-2.2c1-0.5,2.2-0.8,3.7-0.8c2.2,0,3.9,0.6,5.1,1.8c1.2,1.2,1.9,2.9,1.9,5.1l-3.7,0.2
		c-0.2-1.2-0.5-2.1-1.1-2.5s-1.3-0.7-2.3-0.7c-1,0-1.8,0.2-2.3,0.6c-0.5,0.4-0.8,0.9-0.8,1.6c0,0.6,0.2,1.1,0.7,1.6
		c0.5,0.4,1.6,0.9,3.4,1.4c1.9,0.5,3.2,1.1,4.1,1.7s1.5,1.4,1.9,2.3c0.4,1,0.7,2.1,0.7,3.5c0,2-0.6,3.6-1.8,4.9
		c-1.2,1.3-3.1,2-5.7,2C294.7,188.8,292.2,186.3,291.7,181.1z"/>
	<path fill="#117156" d="M330.5,188.4v-18.8H325v-3.8h14.7v3.8h-5.5v18.8H330.5z"/>
	<path fill="#117156" d="M358.6,188.4v-22.6h7.9c2,0,3.5,0.2,4.3,0.6c0.9,0.4,1.6,1.1,2.1,2.1c0.6,1,0.8,2.2,0.8,3.6
		c0,1.8-0.4,3.2-1.3,4.3c-0.8,1.1-2.1,1.8-3.6,2c0.8,0.6,1.5,1.2,2,1.9c0.5,0.7,1.2,1.9,2.1,3.7l2.3,4.4h-4.5l-2.7-4.9
		c-1-1.8-1.6-2.9-2-3.3s-0.7-0.8-1.1-0.9s-1-0.3-1.9-0.3h-0.8v9.4H358.6z M362.3,175.4h2.8c1.7,0,2.8-0.1,3.2-0.2s0.8-0.4,1.1-0.9
		s0.4-1.1,0.4-1.8c0-0.7-0.1-1.3-0.4-1.7s-0.7-0.7-1.2-0.9c-0.3-0.1-1.4-0.2-3-0.2h-2.9V175.4z"/>
	<path fill="#117156" d="M392.9,177.3c0-2.7,0.4-4.9,1.2-6.7c0.8-1.7,1.8-3,3.1-3.9c1.3-0.9,2.8-1.3,4.7-1.3c2.7,0,4.8,1,6.5,3
		s2.5,4.9,2.5,8.7c0,3.8-0.9,6.7-2.7,8.9c-1.6,1.9-3.7,2.8-6.3,2.8c-2.7,0-4.8-0.9-6.4-2.8C393.8,183.9,392.9,181,392.9,177.3z
		 M396.8,177.1c0,2.6,0.5,4.6,1.5,5.9s2.2,2,3.7,2c1.5,0,2.7-0.6,3.7-1.9c1-1.3,1.5-3.3,1.5-5.9c0-2.6-0.5-4.6-1.4-5.8
		c-0.9-1.3-2.2-1.9-3.7-1.9c-1.5,0-2.8,0.6-3.7,1.9C397.3,172.5,396.8,174.5,396.8,177.1z"/>
	<path fill="#117156" d="M430.3,188.4v-22.6h3.6l7.6,15.1v-15.1h3.5v22.6h-3.8l-7.5-14.7v14.7H430.3z"/>
	<path fill="#117156" d="M474,180.2v-3.8h8.1v9c-0.8,1-2,1.8-3.5,2.5c-1.5,0.7-3,1-4.5,1c-1.8,0-3.4-0.5-4.8-1.3
		c-1.4-0.9-2.5-2.2-3.3-4c-0.8-1.8-1.2-3.9-1.2-6.3c0-2.5,0.4-4.6,1.2-6.4c0.8-1.8,1.9-3.1,3.2-4c1.3-0.9,2.9-1.3,4.7-1.3
		c2.2,0,4,0.6,5.3,1.7c1.3,1.1,2.2,2.8,2.6,5l-3.7,0.8c-0.3-1.2-0.8-2.1-1.5-2.7s-1.6-0.9-2.7-0.9c-1.6,0-2.9,0.6-3.9,1.9
		c-1,1.2-1.5,3.1-1.5,5.7c0,2.7,0.5,4.8,1.6,6.2c0.9,1.2,2.2,1.8,3.7,1.8c0.7,0,1.5-0.2,2.3-0.5c0.8-0.3,1.5-0.8,2.1-1.4v-2.9H474z"
		/>
	<path fill="#117156" d="M502,188.4v-22.6h13.8v3.8h-10v5h9.3v3.8h-9.3v6.1h10.4v3.8H502z"/>
	<path fill="#117156" d="M534.7,181.1l3.7-0.4c0.4,2.9,1.8,4.3,4,4.3c1.1,0,2-0.3,2.7-0.9c0.6-0.6,1-1.3,1-2.2c0-0.5-0.1-1-0.3-1.3
		c-0.2-0.4-0.6-0.7-1-0.9s-1.6-0.6-3.4-1.2c-1.6-0.5-2.8-1-3.5-1.6c-0.7-0.6-1.3-1.3-1.8-2.2c-0.4-0.9-0.7-1.9-0.7-3
		c0-1.2,0.3-2.3,0.8-3.3s1.3-1.7,2.3-2.2c1-0.5,2.2-0.8,3.7-0.8c2.2,0,3.9,0.6,5.1,1.8c1.2,1.2,1.9,2.9,1.9,5.1l-3.7,0.2
		c-0.2-1.2-0.5-2.1-1.1-2.5s-1.3-0.7-2.3-0.7s-1.8,0.2-2.3,0.6c-0.5,0.4-0.8,0.9-0.8,1.6c0,0.6,0.2,1.1,0.7,1.6
		c0.5,0.4,1.6,0.9,3.4,1.4c1.9,0.5,3.2,1.1,4.1,1.7c0.8,0.6,1.5,1.4,1.9,2.3c0.4,1,0.7,2.1,0.7,3.5c0,2-0.6,3.6-1.8,4.9
		c-1.2,1.3-3.1,2-5.7,2C537.8,188.8,535.2,186.3,534.7,181.1z"/>
	<path fill="#117156" d="M573.6,188.4v-18.8H568v-3.8h14.7v3.8h-5.5v18.8H573.6z"/>
	<path fill="#117156" d="M625.4,188.4V166h3.7v18.6h9.3v3.8H625.4z"/>
	<path fill="#117156" d="M657.4,188.4v-22.6h3.7v22.6H657.4z"/>
	<path fill="#117156" d="M681.2,188.4v-22.6h3.6l7.6,15.1v-15.1h3.5v22.6h-3.8l-7.5-14.7v14.7H681.2z"/>
	<path fill="#117156" d="M716.3,188.4v-22.6h3.7v10.1l7.6-10.1h5l-7,8.8l7.4,13.8h-4.8l-5.1-10.6l-3,3.8v6.8H716.3z"/>
	<path fill="#117156" d="M734.9,188.4v-4.3h3.5v4.3H734.9z"/>
	<path fill="#117156" d="M738.4,166.3h5.8v1.3h-0.3c-0.1-0.5-0.4-0.9-1-0.9h-0.7v5.2c0,0.4,0.2,0.5,0.8,0.5v0.3h-3.5v-0.3
		c0.5,0,0.8-0.2,0.8-0.5v-5.2h-0.7c-0.5,0-0.9,0.4-1,0.9h-0.3V166.3z M746.6,168.3L746.6,168.3l0,3.3c0,0.5,0,0.8,0.8,0.8v0.3h-2.2
		v-0.3c0.8,0,0.8-0.3,0.8-0.8v-4.1c0-0.3-0.7-0.8-1.2-0.8v-0.3h2.5l2,4.2l2.2-4.2h2.2v0.3c-0.5,0-0.8,0.1-0.8,0.5v4.8
		c0,0.4,0.3,0.5,0.8,0.5v0.3h-3.5v-0.3c0.5,0,0.8-0.1,0.8-0.5v-3.6h0l-2.3,4.4h-0.3L746.6,168.3z"/>
</g>
</svg>
